<svg xmlns="http://www.w3.org/2000/svg" width="512" height="512" viewBox="0 0 512 512" role="img" aria-labelledby="title desc">
  <title id="title">PDCA Skill Creator Logo</title>
  <desc id="desc">A clean PDCA loop mark with a check symbol and skill node.</desc>
  <defs>
    <linearGradient id="bg" x1="80" y1="64" x2="432" y2="448" gradientUnits="userSpaceOnUse">
      <stop stop-color="#0F172A"/>
      <stop offset="1" stop-color="#134E4A"/>
    </linearGradient>
    <linearGradient id="loop" x1="116" y1="114" x2="402" y2="408" gradientUnits="userSpaceOnUse">
      <stop stop-color="#14B8A6"/>
      <stop offset="0.48" stop-color="#0EA5E9"/>
      <stop offset="1" stop-color="#84CC16"/>
    </linearGradient>
    <filter id="shadow" x="-20%" y="-20%" width="140%" height="140%">
      <feDropShadow dx="0" dy="18" stdDeviation="18" flood-color="#020617" flood-opacity="0.28"/>
    </filter>
  </defs>
  <rect x="34" y="34" width="444" height="444" rx="96" fill="url(#bg)"/>
  <g fill="none" stroke-linecap="round" stroke-width="30">
    <path d="M256 104c71 0 131 49 147 115" stroke="url(#loop)"/>
    <path d="M408 262c-3 72-57 132-126 145" stroke="#84CC16"/>
    <path d="M226 408c-72-14-125-77-125-151" stroke="#0EA5E9"/>
    <path d="M112 217c18-66 76-113 144-113" stroke="#14B8A6"/>
  </g>
  <path d="M395 196l41 45-60 13z" fill="#84CC16"/>
  <path d="M308 396l-53 38-8-65z" fill="#0EA5E9"/>
  <path d="M115 292l-43-45 61-13z" fill="#14B8A6"/>
  <g filter="url(#shadow)">
    <circle cx="256" cy="256" r="104" fill="#F8FAFC"/>
    <path d="M206 259l35 35 72-82" fill="none" stroke="#0F766E" stroke-width="26" stroke-linecap="round" stroke-linejoin="round"/>
    <circle cx="325" cy="182" r="28" fill="#FDE68A"/>
    <path d="M325 165v34M308 182h34" stroke="#92400E" stroke-width="9" stroke-linecap="round"/>
  </g>
</svg>
