<svg xmlns="http://www.w3.org/2000/svg" width="1280" height="920" viewBox="0 0 1280 920" role="img" aria-labelledby="title desc">
  <title id="title">PDCA Skill Creator Workflow</title>
  <desc id="desc">Detailed workflow from user requirements to generated PDCA skill, runtime evidence, checks, review, and history.</desc>
  <defs>
    <linearGradient id="bg" x1="0" y1="0" x2="1280" y2="920" gradientUnits="userSpaceOnUse">
      <stop stop-color="#F8FAFC"/>
      <stop offset="1" stop-color="#ECFDF5"/>
    </linearGradient>
    <linearGradient id="accent" x1="240" y1="240" x2="1040" y2="610" gradientUnits="userSpaceOnUse">
      <stop stop-color="#0F766E"/>
      <stop offset="0.52" stop-color="#0284C7"/>
      <stop offset="1" stop-color="#65A30D"/>
    </linearGradient>
    <marker id="arrow" markerWidth="12" markerHeight="12" refX="10" refY="6" orient="auto">
      <path d="M2 2l8 4-8 4z" fill="#64748B"/>
    </marker>
    <filter id="shadow" x="-10%" y="-10%" width="120%" height="130%">
      <feDropShadow dx="0" dy="12" stdDeviation="12" flood-color="#0F172A" flood-opacity="0.12"/>
    </filter>
  </defs>
  <rect width="1280" height="920" rx="28" fill="url(#bg)"/>
  <text x="68" y="82" fill="#0F172A" font-family="Inter, Segoe UI, Arial, sans-serif" font-size="42" font-weight="850">From Workflow to Self-Checking Skill</text>
  <text x="70" y="124" fill="#475569" font-family="Inter, Segoe UI, Arial, sans-serif" font-size="22">A repeatable path from user needs to script-first execution, evidence, diagnosis, and iterative skill evolution.</text>

  <g font-family="Inter, Segoe UI, Arial, sans-serif" filter="url(#shadow)">
    <rect x="70" y="190" width="250" height="158" rx="18" fill="#FFFFFF"/>
    <text x="98" y="240" fill="#0F172A" font-size="25" font-weight="850">1. User Need</text>
    <text x="98" y="278" fill="#475569" font-size="17">Goal, input, output</text>
    <text x="98" y="306" fill="#475569" font-size="17">Scope and trigger</text>

    <rect x="70" y="586" width="250" height="168" rx="18" fill="#FFFFFF"/>
    <text x="98" y="636" fill="#0F172A" font-size="25" font-weight="850">6. Evidence</text>
    <text x="98" y="674" fill="#475569" font-size="17">Logs and outputs</text>
    <text x="98" y="702" fill="#475569" font-size="17">Screenshot paths only</text>
    <text x="98" y="730" fill="#475569" font-size="17">Latest log by default</text>

    <rect x="960" y="190" width="250" height="158" rx="18" fill="#FFFFFF"/>
    <text x="988" y="240" fill="#0F172A" font-size="25" font-weight="850">3. Skill Files</text>
    <text x="988" y="278" fill="#475569" font-size="17">SKILL.md</text>
    <text x="988" y="306" fill="#475569" font-size="17">scripts / references</text>

    <rect x="960" y="586" width="250" height="168" rx="18" fill="#FFFFFF"/>
    <text x="988" y="636" fill="#0F172A" font-size="25" font-weight="850">5. History</text>
    <text x="988" y="674" fill="#475569" font-size="17">plan-history.md</text>
    <text x="988" y="702" fill="#475569" font-size="17">Creator version</text>
    <text x="988" y="730" fill="#475569" font-size="17">Upgrade record</text>
  </g>

  <g fill="none" stroke="#64748B" stroke-width="4" marker-end="url(#arrow)">
    <path d="M320 269h105"/>
    <path d="M855 269h105"/>
    <path d="M1085 348v238"/>
    <path d="M960 670H855"/>
    <path d="M425 670H320"/>
    <path d="M195 586V348"/>
  </g>

  <circle cx="640" cy="460" r="226" fill="#FFFFFF" stroke="#E2E8F0" stroke-width="2" filter="url(#shadow)"/>
  <circle cx="640" cy="460" r="166" fill="none" stroke="url(#accent)" stroke-width="24" stroke-linecap="round" stroke-dasharray="214 70"/>
  <g font-family="Inter, Segoe UI, Arial, sans-serif" text-anchor="middle">
    <g>
      <rect x="552" y="234" width="176" height="80" rx="16" fill="#CCFBF1"/>
      <text x="640" y="282" fill="#0F766E" font-size="26" font-weight="850">Plan</text>
      <text x="640" y="304" fill="#0F766E" font-size="13">requirements</text>
    </g>
    <g>
      <rect x="794" y="420" width="176" height="80" rx="16" fill="#E0F2FE"/>
      <text x="882" y="468" fill="#0369A1" font-size="26" font-weight="850">Do</text>
      <text x="882" y="490" fill="#0369A1" font-size="13">scripts</text>
    </g>
    <g>
      <rect x="552" y="606" width="176" height="80" rx="16" fill="#ECFCCB"/>
      <text x="640" y="654" fill="#4D7C0F" font-size="26" font-weight="850">Check</text>
      <text x="640" y="676" fill="#4D7C0F" font-size="13">diagnosis</text>
    </g>
    <g>
      <rect x="310" y="420" width="176" height="80" rx="16" fill="#EDE9FE"/>
      <text x="398" y="468" fill="#6D28D9" font-size="26" font-weight="850">Act</text>
      <text x="398" y="490" fill="#6D28D9" font-size="13">review</text>
    </g>
    <text x="640" y="444" fill="#0F172A" font-size="30" font-weight="850">PDCA</text>
    <text x="640" y="480" fill="#475569" font-size="18">self-checking loop</text>
  </g>

  <g font-family="Inter, Segoe UI, Arial, sans-serif" filter="url(#shadow)">
    <rect x="368" y="758" width="544" height="86" rx="18" fill="#0F172A"/>
    <text x="396" y="792" fill="#A7F3D0" font-size="18" font-weight="800">Runtime cost controls</text>
    <text x="396" y="822" fill="#E2E8F0" font-size="17">Execute scripts · Archive screenshots · Read latest log · Load history only when needed</text>
  </g>

  <g font-family="Inter, Segoe UI, Arial, sans-serif" font-size="15">
    <rect x="470" y="150" width="340" height="54" rx="14" fill="#FFFFFF" stroke="#E2E8F0"/>
    <text x="490" y="184" fill="#334155">2. Creator applies PDCA stage template</text>
    <rect x="470" y="716" width="340" height="54" rx="14" fill="#FFFFFF" stroke="#E2E8F0"/>
    <text x="490" y="750" fill="#334155">4. Generated skill evolves through Act reviews</text>
  </g>
</svg>
